<svg width="70" height="70" viewBox="0 0 70 70" fill="none" xmlns="http://www.w3.org/2000/svg">
<rect width="70" height="70" rx="35" fill="#2D1959"/>
<path d="M35 44.3333C40.1546 44.3333 44.3333 40.1547 44.3333 35C44.3333 29.8453 40.1546 25.6667 35 25.6667C29.8453 25.6667 25.6667 29.8453 25.6667 35C25.6667 40.1547 29.8453 44.3333 35 44.3333Z" stroke="white" stroke-width="2" stroke-linecap="round" stroke-linejoin="round"/>
<path d="M35 31V35L37 37" stroke="white" stroke-width="2" stroke-linecap="round" stroke-linejoin="round"/>
<path d="M41.0133 42.1333L40.5467 47.24C40.4866 47.9049 40.1793 48.523 39.6856 48.9723C39.1919 49.4216 38.5476 49.6694 37.88 49.6667H32.1067C31.4391 49.6694 30.7948 49.4216 30.3011 48.9723C29.8073 48.523 29.5001 47.9049 29.44 47.24L28.9733 42.1333M28.9867 27.8667L29.4533 22.76C29.5132 22.0974 29.8186 21.4812 30.3095 21.0322C30.8004 20.5832 31.4414 20.334 32.1067 20.3333H37.9067C38.5742 20.3306 39.2185 20.5784 39.7123 21.0277C40.206 21.477 40.5133 22.0951 40.5733 22.76L41.04 27.8667" stroke="white" stroke-width="2" stroke-linecap="round" stroke-linejoin="round"/>
</svg>
