<svg width="70" height="70" viewBox="0 0 70 70" fill="none" xmlns="http://www.w3.org/2000/svg">
<rect width="70" height="70" rx="35" fill="#2D1959"/>
<path d="M35 48.3333C42.3638 48.3333 48.3333 42.3638 48.3333 35C48.3333 27.6362 42.3638 21.6667 35 21.6667C27.6362 21.6667 21.6667 27.6362 21.6667 35C21.6667 42.3638 27.6362 48.3333 35 48.3333Z" stroke="white" stroke-width="2" stroke-linecap="round" stroke-linejoin="round"/>
<path d="M21.6667 35H48.3333" stroke="white" stroke-width="2" stroke-linecap="round" stroke-linejoin="round"/>
<path d="M35 21.6667C38.335 25.3178 40.2303 30.0561 40.3333 35C40.2303 39.944 38.335 44.6822 35 48.3333C31.6649 44.6822 29.7697 39.944 29.6667 35C29.7697 30.0561 31.6649 25.3178 35 21.6667V21.6667Z" stroke="white" stroke-width="2" stroke-linecap="round" stroke-linejoin="round"/>
</svg>
